0, 0, Header, 0, 1, 96
1, 0, Start_track
1, 0, Title_t, "1-MIDI 1\000"
1, 0, Time_signature, 4, 2, 36, 8
1, 0, Time_signature, 4, 2, 36, 8
1, 406, Note_on_c, 0, 65, 100
1, 434, Note_on_c, 0, 64, 100
1, 447, Note_off_c, 0, 65, 64
1, 474, Note_off_c, 0, 64, 64
1, 489, Note_on_c, 0, 65, 100
1, 498, Note_on_c, 0, 60, 100
1, 521, Note_on_c, 0, 62, 100
1, 527, Note_off_c, 0, 65, 64
1, 543, Note_on_c, 0, 64, 100
1, 550, Note_off_c, 0, 60, 64
1, 563, Note_on_c, 0, 65, 100
1, 564, Note_off_c, 0, 62, 64
1, 578, Note_off_c, 0, 64, 64
1, 581, Note_on_c, 0, 72, 100
1, 584, Note_on_c, 0, 60, 100
1, 586, Note_on_c, 0, 69, 100
1, 644, Note_off_c, 0, 72, 64
1, 646, Note_off_c, 0, 60, 64
1, 647, Note_off_c, 0, 69, 64
1, 649, Note_off_c, 0, 65, 64
1, 665, Note_on_c, 0, 72, 100
1, 667, Note_on_c, 0, 69, 100
1, 668, Note_on_c, 0, 60, 100
1, 670, Note_on_c, 0, 64, 100
1, 724, Note_off_c, 0, 69, 64
1, 726, Note_off_c, 0, 60, 64
1, 726, Note_off_c, 0, 72, 64
1, 736, Note_off_c, 0, 64, 64
1, 742, Note_on_c, 0, 65, 100
1, 745, Note_on_c, 0, 71, 100
1, 747, Note_on_c, 0, 60, 100
1, 752, Note_on_c, 0, 74, 100
1, 780, Note_off_c, 0, 71, 64
1, 791, Note_on_c, 0, 71, 100
1, 795, Note_on_c, 0, 72, 100
1, 796, Note_on_c, 0, 69, 100
1, 807, Note_off_c, 0, 74, 64
1, 811, Note_off_c, 0, 72, 64
1, 814, Note_off_c, 0, 71, 64
1, 817, Note_off_c, 0, 69, 64
1, 820, Note_off_c, 0, 60, 64
1, 832, Note_off_c, 0, 65, 64
1, 838, Note_on_c, 0, 69, 100
1, 838, Note_on_c, 0, 72, 100
1, 853, Note_off_c, 0, 69, 64
1, 853, Note_off_c, 0, 72, 64
1, 868, Note_on_c, 0, 62, 100
1, 876, Note_on_c, 0, 72, 100
1, 879, Note_on_c, 0, 69, 100
1, 916, Note_off_c, 0, 72, 64
1, 919, Note_off_c, 0, 69, 64
1, 933, Note_off_c, 0, 62, 64
1, 959, Note_on_c, 0, 65, 100
1, 962, Note_on_c, 0, 72, 100
1, 963, Note_on_c, 0, 69, 100
1, 967, Note_on_c, 0, 62, 100
1, 1003, Note_on_c, 0, 71, 100
1, 1006, Note_on_c, 0, 64, 100
1, 1021, Note_on_c, 0, 60, 100
1, 1021, Note_off_c, 0, 69, 64
1, 1021, Note_off_c, 0, 72, 64
1, 1021, Note_on_c, 0, 74, 100
1, 1025, Note_off_c, 0, 62, 64
1, 1037, Note_off_c, 0, 71, 64
1, 1046, Note_off_c, 0, 74, 64
1, 1051, Note_off_c, 0, 60, 64
1, 1056, Note_off_c, 0, 64, 64
1, 1059, Note_off_c, 0, 65, 64
1, 1091, Note_on_c, 0, 64, 100
1, 1097, Note_on_c, 0, 60, 100
1, 1099, Note_on_c, 0, 71, 100
1, 1099, Note_on_c, 0, 74, 100
1, 1146, Note_on_c, 0, 69, 100
1, 1148, Note_on_c, 0, 72, 100
1, 1154, Note_off_c, 0, 71, 64
1, 1160, Note_off_c, 0, 74, 64
1, 1172, Note_off_c, 0, 72, 64
1, 1174, Note_off_c, 0, 69, 64
1, 1186, Note_on_c, 0, 69, 100
1, 1188, Note_on_c, 0, 72, 100
1, 1189, Note_on_c, 0, 67, 100
1, 1212, Note_off_c, 0, 69, 64
1, 1214, Note_off_c, 0, 72, 64
1, 1226, Note_off_c, 0, 60, 64
1, 1228, Note_off_c, 0, 64, 64
1, 1231, Note_off_c, 0, 67, 64
1, 1267, Note_on_c, 0, 67, 100
1, 1269, Note_on_c, 0, 69, 100
1, 1271, Note_on_c, 0, 72, 100
1, 1350, Note_off_c, 0, 72, 64
1, 1353, Note_off_c, 0, 69, 64
1, 1360, Note_on_c, 0, 65, 100
1, 1364, Note_on_c, 0, 71, 100
1, 1366, Note_on_c, 0, 74, 100
1, 1386, Note_off_c, 0, 67, 64
1, 1419, Note_off_c, 0, 71, 64
1, 1424, Note_off_c, 0, 74, 64
1, 1430, Note_off_c, 0, 65, 64
1, 1446, Note_on_c, 0, 64, 100
1, 1449, Note_on_c, 0, 71, 100
1, 1450, Note_on_c, 0, 74, 100
1, 1530, Note_on_c, 0, 65, 100
1, 1536, Note_off_c, 0, 71, 64
1, 1544, Note_off_c, 0, 64, 64
1, 1547, Note_off_c, 0, 74, 64
1, 1569, Note_on_c, 0, 72, 100
1, 1573, Note_on_c, 0, 67, 100
1, 1573, Note_on_c, 0, 69, 100
1, 1579, Note_off_c, 0, 65, 64
1, 1619, Note_off_c, 0, 72, 64
1, 1621, Note_off_c, 0, 69, 64
1, 1630, Note_off_c, 0, 67, 64
1, 1650, Note_on_c, 0, 69, 100
1, 1653, Note_on_c, 0, 67, 100
1, 1653, Note_on_c, 0, 72, 100
1, 1693, Note_off_c, 0, 67, 64
1, 1696, Note_off_c, 0, 69, 64
1, 1698, Note_off_c, 0, 72, 64
1, 1730, Note_on_c, 0, 60, 100
1, 1738, Note_on_c, 0, 74, 100
1, 1742, Note_on_c, 0, 71, 100
1, 1767, Note_on_c, 0, 62, 100
1, 1794, Note_on_c, 0, 72, 100
1, 1799, Note_off_c, 0, 60, 64
1, 1802, Note_off_c, 0, 74, 64
1, 1805, Note_on_c, 0, 69, 100
1, 1813, Note_off_c, 0, 71, 64
1, 1816, Note_on_c, 0, 64, 100
1, 1828, Note_off_c, 0, 72, 64
1, 1830, Note_off_c, 0, 62, 64
1, 1835, Note_off_c, 0, 69, 64
1, 1845, Note_off_c, 0, 64, 64
1, 1851, Note_on_c, 0, 69, 100
1, 1851, Note_on_c, 0, 72, 100
1, 1853, Note_on_c, 0, 65, 100
1, 1888, Note_off_c, 0, 72, 64
1, 1893, Note_off_c, 0, 69, 64
1, 1898, Note_off_c, 0, 65, 64
1, 1927, Note_on_c, 0, 69, 100
1, 1927, Note_on_c, 0, 72, 100
1, 1930, Note_on_c, 0, 65, 100
1, 1954, Note_on_c, 0, 64, 100
1, 1965, Note_on_c, 0, 71, 100
1, 1983, Note_off_c, 0, 65, 64
1, 1988, Note_off_c, 0, 69, 64
1, 1989, Note_off_c, 0, 72, 64
1, 1995, Note_on_c, 0, 74, 100
1, 2000, Note_off_c, 0, 71, 64
1, 2003, Note_on_c, 0, 60, 100
1, 2010, Note_off_c, 0, 64, 64
1, 2027, Note_off_c, 0, 74, 64
1, 2030, Note_off_c, 0, 60, 64
1, 2043, Note_on_c, 0, 74, 100
1, 2046, Note_on_c, 0, 62, 100
1, 2090, Note_off_c, 0, 74, 64
1, 2093, Note_off_c, 0, 62, 64
1, 2114, Note_on_c, 0, 74, 100
1, 2117, Note_on_c, 0, 64, 100
1, 2143, Note_on_c, 0, 72, 100
1, 2157, Note_on_c, 0, 71, 100
1, 2163, Note_off_c, 0, 64, 64
1, 2163, Note_off_c, 0, 74, 64
1, 2180, Note_on_c, 0, 69, 100
1, 2181, Note_off_c, 0, 72, 64
1, 2189, Note_off_c, 0, 71, 64
1, 2206, Note_on_c, 0, 71, 100
1, 2220, Note_off_c, 0, 69, 64
1, 2234, Note_off_c, 0, 71, 64
1, 2248, Note_on_c, 0, 74, 100
1, 2282, Note_on_c, 0, 72, 100
1, 2297, Note_on_c, 0, 71, 100
1, 2301, Note_off_c, 0, 74, 64
1, 2317, Note_on_c, 0, 69, 100
1, 2318, Note_off_c, 0, 72, 64
1, 2328, Note_off_c, 0, 71, 64
1, 2336, Note_on_c, 0, 65, 100
1, 2344, Note_off_c, 0, 69, 64
1, 2355, Note_on_c, 0, 64, 100
1, 2375, Note_on_c, 0, 62, 100
1, 2391, Note_off_c, 0, 65, 64
1, 2398, Note_on_c, 0, 60, 100
1, 2403, Note_off_c, 0, 64, 64
1, 2407, Note_off_c, 0, 62, 64
1, 2430, Note_on_c, 0, 62, 100
1, 2440, Note_on_c, 0, 64, 100
1, 2441, Note_off_c, 0, 60, 64
1, 2459, Note_on_c, 0, 65, 100
1, 2461, Note_off_c, 0, 62, 64
1, 2472, Note_off_c, 0, 64, 64
1, 2481, Note_on_c, 0, 69, 100
1, 2485, Note_off_c, 0, 65, 64
1, 2509, Note_on_c, 0, 71, 100
1, 2518, Note_off_c, 0, 69, 64
1, 2528, Note_on_c, 0, 72, 100
1, 2542, Note_on_c, 0, 74, 100
1, 2544, Note_off_c, 0, 71, 64
1, 2553, Note_off_c, 0, 72, 64
1, 2559, Note_off_c, 0, 74, 64
1, 2565, Note_on_c, 0, 65, 100
1, 2656, Note_off_c, 0, 65, 64
1, 2658, Note_on_c, 0, 74, 100
1, 2687, Note_off_c, 0, 74, 64
1, 2719, Note_on_c, 0, 62, 100
1, 2736, Note_on_c, 0, 71, 100
1, 2741, Note_off_c, 0, 62, 64
1, 2756, Note_on_c, 0, 64, 100
1, 2756, Note_off_c, 0, 71, 64
1, 2779, Note_off_c, 0, 64, 64
1, 2801, Note_on_c, 0, 71, 100
1, 2821, Note_on_c, 0, 65, 100
1, 2822, Note_on_c, 0, 69, 100
1, 2825, Note_off_c, 0, 71, 64
1, 2840, Note_off_c, 0, 69, 64
1, 2845, Note_off_c, 0, 65, 64
1, 2866, Note_on_c, 0, 62, 100
1, 2868, Note_on_c, 0, 72, 100
1, 2900, Note_off_c, 0, 72, 64
1, 2906, Note_off_c, 0, 62, 64
1, 2937, Note_on_c, 0, 74, 100
1, 2954, Note_on_c, 0, 64, 100
1, 2964, Note_off_c, 0, 74, 64
1, 2982, Note_on_c, 0, 71, 100
1, 2983, Note_off_c, 0, 64, 64
1, 2994, Note_on_c, 0, 65, 100
1, 3002, Note_off_c, 0, 71, 64
1, 3025, Note_off_c, 0, 65, 64
1, 3070, Note_on_c, 0, 60, 100
1, 3071, Note_on_c, 0, 69, 100
1, 3088, Note_on_c, 0, 74, 100
1, 3094, Note_off_c, 0, 69, 64
1, 3097, Note_off_c, 0, 74, 64
1, 3103, Note_off_c, 0, 60, 64
1, 3117, Note_on_c, 0, 60, 100
1, 3120, Note_on_c, 0, 74, 100
1, 3122, Note_on_c, 0, 69, 100
1, 3126, Note_on_c, 0, 65, 100
1, 3145, Note_off_c, 0, 69, 64
1, 3146, Note_off_c, 0, 74, 64
1, 3149, Note_off_c, 0, 60, 64
1, 3157, Note_off_c, 0, 65, 64
1, 3166, Note_on_c, 0, 74, 100
1, 3167, Note_on_c, 0, 69, 100
1, 3169, Note_on_c, 0, 60, 100
1, 3171, Note_on_c, 0, 65, 100
1, 3202, Note_on_c, 0, 72, 100
1, 3215, Note_off_c, 0, 69, 64
1, 3220, Note_off_c, 0, 60, 64
1, 3234, Note_off_c, 0, 65, 64
1, 3237, Note_on_c, 0, 69, 100
1, 3238, Note_on_c, 0, 71, 100
1, 3240, Note_off_c, 0, 74, 64
1, 3246, Note_off_c, 0, 72, 64
1, 3249, Note_on_c, 0, 62, 100
1, 3262, Note_on_c, 0, 65, 100
1, 3263, Note_off_c, 0, 69, 64
1, 3298, Note_off_c, 0, 71, 64
1, 3301, Note_off_c, 0, 65, 64
1, 3304, Note_off_c, 0, 62, 64
1, 3342, Note_on_c, 0, 64, 100
1, 3342, Note_on_c, 0, 72, 100
1, 3390, Note_off_c, 0, 72, 64
1, 3392, Note_off_c, 0, 64, 64
1, 3421, Note_on_c, 0, 65, 100
1, 3422, Note_on_c, 0, 74, 100
1, 3426, Note_on_c, 0, 69, 100
1, 3460, Note_on_c, 0, 60, 100
1, 3464, Note_on_c, 0, 72, 100
1, 3492, Note_off_c, 0, 74, 64
1, 3507, Note_on_c, 0, 71, 100
1, 3509, Note_off_c, 0, 69, 64
1, 3510, Note_off_c, 0, 72, 64
1, 3516, Note_off_c, 0, 65, 64
1, 3518, Note_off_c, 0, 60, 64
1, 3536, Note_off_c, 0, 71, 64
1, 3548, Note_on_c, 0, 62, 100
1, 3555, Note_on_c, 0, 69, 100
1, 3556, Note_on_c, 0, 65, 100
1, 3591, Note_off_c, 0, 69, 64
1, 3599, Note_off_c, 0, 65, 64
1, 3601, Note_off_c, 0, 62, 64
1, 3628, Note_on_c, 0, 69, 100
1, 3630, Note_on_c, 0, 65, 100
1, 3651, Note_off_c, 0, 69, 64
1, 3659, Note_off_c, 0, 65, 64
1, 3675, Note_on_c, 0, 65, 100
1, 3675, Note_on_c, 0, 69, 100
1, 3676, Note_on_c, 0, 60, 100
1, 3700, Note_off_c, 0, 69, 64
1, 3707, Note_off_c, 0, 65, 64
1, 3714, Note_on_c, 0, 72, 100
1, 3718, Note_off_c, 0, 60, 64
1, 3729, Note_on_c, 0, 69, 100
1, 3736, Note_off_c, 0, 69, 64
1, 3740, Note_off_c, 0, 72, 64
1, 3764, Note_on_c, 0, 72, 100
1, 3765, Note_on_c, 0, 69, 100
1, 3769, Note_on_c, 0, 65, 100
1, 3769, Note_on_c, 0, 62, 100
1, 3791, Note_off_c, 0, 72, 64
1, 3793, Note_off_c, 0, 69, 64
1, 3822, Note_off_c, 0, 65, 64
1, 3826, Note_off_c, 0, 62, 64
1, 3847, Note_on_c, 0, 69, 100
1, 3848, Note_on_c, 0, 72, 100
1, 3849, Note_on_c, 0, 60, 100
1, 3850, Note_on_c, 0, 64, 100
1, 3900, Note_off_c, 0, 69, 64
1, 3902, Note_off_c, 0, 72, 64
1, 3911, Note_off_c, 0, 64, 64
1, 3913, Note_off_c, 0, 60, 64
1, 3928, Note_on_c, 0, 69, 100
1, 3928, Note_on_c, 0, 72, 100
1, 3929, Note_on_c, 0, 65, 100
1, 3931, Note_on_c, 0, 60, 100
1, 3965, Note_off_c, 0, 69, 64
1, 3966, Note_off_c, 0, 60, 64
1, 3968, Note_off_c, 0, 72, 64
1, 3979, Note_off_c, 0, 65, 64
1, 4003, Note_on_c, 0, 74, 100
1, 4005, Note_on_c, 0, 71, 100
1, 4005, Note_on_c, 0, 62, 100
1, 4020, Note_on_c, 0, 64, 100
1, 4045, Note_on_c, 0, 72, 100
1, 4046, Note_on_c, 0, 60, 100
1, 4048, Note_off_c, 0, 62, 64
1, 4052, Note_on_c, 0, 65, 100
1, 4053, Note_on_c, 0, 69, 100
1, 4053, Note_off_c, 0, 71, 64
1, 4059, Note_off_c, 0, 64, 64
1, 4060, Note_off_c, 0, 74, 64
1, 4077, Note_off_c, 0, 60, 64
1, 4077, Note_off_c, 0, 72, 64
1, 4080, Note_off_c, 0, 69, 64
1, 4086, Note_on_c, 0, 62, 100
1, 4091, Note_off_c, 0, 65, 64
1, 4092, Note_on_c, 0, 69, 100
1, 4092, Note_on_c, 0, 72, 100
1, 4109, Note_off_c, 0, 72, 64
1, 4111, Note_off_c, 0, 69, 64
1, 4114, Note_off_c, 0, 62, 64
1, 4129, Note_on_c, 0, 71, 100
1, 4131, Note_on_c, 0, 64, 100
1, 4154, Note_off_c, 0, 64, 64
1, 4154, Note_off_c, 0, 71, 64
1, 4163, Note_on_c, 0, 62, 100
1, 4168, Note_on_c, 0, 72, 100
1, 4175, Note_on_c, 0, 67, 100
1, 4178, Note_on_c, 0, 69, 100
1, 4195, Note_off_c, 0, 72, 64
1, 4203, Note_on_c, 0, 65, 100
1, 4204, Note_on_c, 0, 64, 100
1, 4209, Note_on_c, 0, 72, 100
1, 4215, Note_off_c, 0, 67, 64
1, 4216, Note_on_c, 0, 74, 100
1, 4223, Note_on_c, 0, 71, 100
1, 4223, Note_off_c, 0, 62, 64
1, 4226, Note_off_c, 0, 69, 64
1, 4236, Note_off_c, 0, 65, 64
1, 4240, Note_off_c, 0, 71, 64
1, 4241, Note_off_c, 0, 64, 64
1, 4241, Note_off_c, 0, 72, 64
1, 4246, Note_off_c, 0, 74, 64
1, 4281, Note_on_c, 0, 70, 100
1, 4298, Note_on_c, 0, 63, 100
1, 4304, Note_on_c, 0, 61, 100
1, 4307, Note_off_c, 0, 70, 64
1, 4313, Note_off_c, 0, 61, 64
1, 4335, Note_off_c, 0, 63, 64
1, 4337, Note_on_c, 0, 61, 100
1, 4361, Note_on_c, 0, 63, 100
1, 4373, Note_off_c, 0, 61, 64
1, 4375, Note_on_c, 0, 65, 100
1, 4387, Note_off_c, 0, 63, 64
1, 4406, Note_off_c, 0, 65, 64
1, 4411, Note_on_c, 0, 60, 100
1, 4418, Note_on_c, 0, 72, 100
1, 4421, Note_on_c, 0, 69, 100
1, 4424, Note_on_c, 0, 62, 100
1, 4440, Note_off_c, 0, 60, 64
1, 4447, Note_off_c, 0, 69, 64
1, 4449, Note_off_c, 0, 72, 64
1, 4464, Note_off_c, 0, 62, 64
1, 4464, End_track
0, 0, End_of_file
